<svg width="6" height="10" viewBox="0 0 6 10" fill="none" xmlns="http://www.w3.org/2000/svg">
<path d="M3.96383 3.51969V3.70526H4.1494H5.53547L5.33575 5.0041H4.15368H3.96811V5.18967V9.06617C3.49174 9.12705 3.00955 9.12705 2.53318 9.06617V5.18967V5.0041H2.34761H1.06179V3.70612H2.34761H2.53318V3.52055V2.24774C2.53318 1.56023 2.73562 1.0499 3.07239 0.711705C3.40902 0.373647 3.90152 0.185826 4.52473 0.185568C4.89595 0.190817 5.2664 0.219831 5.6338 0.272411V1.34916H5.09095C4.69165 1.34916 4.39942 1.47456 4.2105 1.69304C4.02594 1.90649 3.96383 2.18148 3.96383 2.43691V3.51969Z" stroke="white" stroke-width="0.371135"/>
</svg>
