<svg width="10" height="9" viewBox="0 0 10 9" fill="none" xmlns="http://www.w3.org/2000/svg">
<path d="M3.71573 8.23626H3.7156C2.91125 8.23702 2.1205 8.05027 1.40502 7.69413C2.23927 7.66975 3.04501 7.37867 3.70313 6.86194L4.00829 6.62233L3.62041 6.61333C3.25729 6.60491 2.90582 6.48358 2.61483 6.26621C2.38457 6.0942 2.20123 5.86881 2.07969 5.61088C2.3043 5.62623 2.53049 5.60409 2.74885 5.5448L2.73994 5.27406C2.34615 5.19452 1.992 4.98121 1.73755 4.67032C1.52627 4.41217 1.39454 4.09994 1.35586 3.77143C1.57653 3.86176 1.81223 3.91207 2.05187 3.91929L2.53736 3.93392L2.1333 3.66439C1.76465 3.4185 1.50367 3.04126 1.40356 2.60959C1.31872 2.2438 1.3548 1.86227 1.50334 1.52126C1.96256 2.04342 2.51754 2.47379 3.13896 2.7887C3.8236 3.13566 4.57357 3.33471 5.34015 3.37295L5.52442 3.38214L5.48265 3.20243C5.45249 3.0727 5.43752 2.93991 5.43803 2.80672V2.8063C5.43831 2.45749 5.54338 2.11682 5.73961 1.82844C5.93584 1.54007 6.21417 1.3173 6.53853 1.18902C6.86289 1.06074 7.21831 1.03287 7.5587 1.10902C7.89909 1.18517 8.20875 1.36183 8.44754 1.61609L8.50007 1.67203L8.57542 1.65745C8.88011 1.59851 9.17628 1.50382 9.45789 1.37568C9.3106 1.62588 9.1022 1.83728 8.84967 1.98853L8.93742 2.24616C9.16135 2.21985 9.38225 2.17405 9.59762 2.10944C9.41441 2.31947 9.20765 2.50844 8.9811 2.67249L8.92354 2.71416V2.78522V2.78569V2.78616V2.78664V2.78711V2.78758V2.78805V2.78853V2.789V2.78947V2.78995V2.79042V2.79089V2.79137V2.79184V2.79231V2.79278V2.79326V2.79373V2.7942V2.79468V2.79515V2.79562V2.7961V2.79657V2.79704V2.79752V2.79799V2.79846V2.79893V2.79941V2.79988V2.80035V2.80083V2.8013V2.80177V2.80225V2.80272V2.80319V2.80366V2.80414V2.80461V2.80508V2.80556V2.80603V2.8065V2.80698V2.80745V2.80792V2.8084V2.80887V2.80934V2.80981V2.81029V2.81076V2.81123V2.81171V2.81218V2.81265V2.81313V2.8136V2.81407V2.81455V2.81502V2.81549V2.81597V2.81644V2.81691V2.81738V2.81786V2.81833V2.8188V2.81928V2.81975V2.82022V2.8207V2.82117V2.82164V2.82212V2.82259V2.82306V2.82354V2.82401V2.82448V2.82495V2.82543V2.8259V2.82637V2.82685V2.82732V2.82779V2.82827V2.82874V2.82921V2.82969V2.83016V2.83063V2.83111V2.83158V2.83205V2.83253V2.833V2.83347V2.83395V2.83442V2.83489V2.83537V2.83584V2.83631V2.83679V2.83726V2.83773V2.83821V2.83868V2.83915V2.83963V2.8401V2.84057V2.84105V2.84152V2.84199V2.84247V2.84294V2.84341V2.84389V2.84436V2.84483V2.84531V2.84578V2.84625V2.84673V2.8472V2.84767V2.84815V2.84862V2.84909V2.84957V2.85004V2.85051V2.85099V2.85146V2.85193V2.85241V2.85288V2.85336V2.85383V2.8543V2.85478V2.85525V2.85572V2.8562V2.85667V2.85714V2.85762V2.85809V2.85856V2.85904V2.85951V2.85998V2.86046V2.86093V2.86141V2.86188V2.86235V2.86283V2.8633V2.86377V2.86425V2.86472V2.86519V2.86567V2.86614V2.86662V2.86709V2.86756V2.86804V2.86851V2.86898V2.86946V2.86993V2.87041V2.87088V2.87135V2.87183V2.8723V2.87277V2.87325V2.87372V2.8742V2.87467V2.87514V2.87562V2.87609V2.87657V2.87704V2.87751V2.87799V2.87846V2.87894V2.87941V2.87988V2.88036V2.88083V2.88131V2.88178V2.88225V2.88273V2.8832V2.88368V2.88415V2.88462V2.8851V2.88557V2.88605V2.88652V2.88699V2.88747V2.88794V2.88842V2.88889V2.88936V2.88984V2.89031V2.89079V2.89126V2.89174V2.89221V2.89268V2.89316V2.89363V2.89411V2.89458V2.89506V2.89553V2.896V2.89648V2.89695V2.89743V2.8979V2.89838V2.89885V2.89932V2.8998V2.90027V2.90075V2.90122V2.9017V2.90217V2.90264V2.90312V2.90359V2.90407V2.90454V2.90502V2.90549V2.90597V2.90644V2.90692V2.90739V2.90786V2.90834V2.90881V2.90929V2.90976V2.91024V2.91071V2.91119V2.91166V2.91214V2.91261V2.91309V2.91356V2.91404V2.91451V2.91499V2.91546V2.91593V2.91641V2.91688V2.91736V2.91783V2.91831V2.91878V2.91926V2.91973V2.92021V2.92068V2.92116V2.92163V2.92211V2.92258V2.92306V2.92353V2.92401V2.92448V2.92496V2.92543V2.92591V2.92638V2.92686V2.92733V2.92781V2.92828V2.92876V2.92923V2.92971V2.93018V2.93066V2.93114V2.93161V2.93209V2.93256V2.93304V2.93351V2.93399V2.93446V2.93494V2.93541V2.93589V2.93636V2.93684V2.93731V2.93779V2.93827V2.93874V2.93922V2.93969V2.94017V2.94064V2.94112V2.94159V2.94207V2.94255V2.94302V2.9435V2.94397V2.94445V2.94492V2.9454V2.94588V2.94635V2.94683V2.9473V2.94778V2.94825V2.94873V2.94921V2.94968V2.95016V2.95063V2.95111V2.95158V2.95206V2.95254V2.95301V2.95349V2.95396V2.95444V2.95492V2.95539V2.95587V2.95634V2.95682V2.9573V2.95777V2.95825V2.95873V2.9592V2.95968V2.96015V2.96063V2.96111V2.96158V2.96206V2.96254V2.96301V2.96349V2.96396V2.96444V2.96492V2.96539V2.96587V2.96635V2.96682V2.9673V2.96778V2.96825V2.96873V2.96921V2.96968V2.97016V2.97063V2.97111V2.97159V2.97206V2.97254V2.97302V2.97349V2.97397V2.97445V2.97493V2.9754V2.97588V2.97636V2.97683V2.97731V2.97779V2.97826V2.97874V2.97922V2.97969V2.98017V2.98065V2.98112V2.9816V2.98208V2.98256V2.98303V2.98351V2.98399V2.98446V2.98494V2.98542V2.9859V2.98637V2.98685V2.98733V2.9878V2.98828V2.98876V2.98924V2.98971V2.99019V2.99067V2.99115V2.99162V2.9921V2.99258V2.99306V2.99353V2.99401V2.99449V2.99497V2.99544V2.99592V2.9964V2.99688V2.99735V2.99783V2.99831V2.99879V2.99927V2.99974V3.00022V3.0007V3.00118V3.00166V3.00213V3.00261V3.00309V3.00357V3.00404V3.00452V3.005V3.00548V3.00596V3.00643V3.00691V3.00739V3.00787V3.00835V3.00883V3.0093V3.00978V3.01026V3.01074V3.01122V3.0117V3.01217V3.01265V3.01313V3.01361V3.01409V3.01457V3.01504V3.01552V3.016V3.01648V3.01696V3.01744V3.01792V3.01839V3.01887V3.01935V3.01983V3.02031V3.02079V3.02127V3.02175V3.02222V3.0227V3.02318V3.02366V3.02414V3.02462V3.0251V3.02558V3.02606V3.02654V3.02701V3.02749V3.02797V3.02845C8.92354 5.45136 7.08264 8.23626 3.71573 8.23626Z" stroke="white" stroke-width="0.278351"/>
</svg>
