<svg width="11" height="8" viewBox="0 0 11 8" fill="none" xmlns="http://www.w3.org/2000/svg">
<path d="M9.29128 6.80182L9.24363 6.62248C9.07912 6.66619 8.77333 6.70249 8.39179 6.73081C8.01541 6.75874 7.58034 6.77797 7.1665 6.79117C6.75294 6.80436 6.36204 6.81148 6.07443 6.8153C5.93067 6.81721 5.8128 6.8183 5.73092 6.81891L5.63638 6.8195L5.61173 6.81962L5.60548 6.81964L5.60393 6.81964L5.60385 6.81964L5.60355 6.81964L5.60347 6.81964L5.60346 6.81964L5.60192 6.81964L5.59567 6.81964L5.57103 6.8196L5.47654 6.81926C5.3947 6.81888 5.27688 6.81811 5.13317 6.81658C4.84568 6.8135 4.45493 6.80736 4.04154 6.79509C3.62785 6.78281 3.19298 6.76443 2.81678 6.73699C2.43532 6.70916 2.12994 6.67297 1.96582 6.62889L1.96559 6.62883C1.79591 6.5835 1.64119 6.49424 1.517 6.37005C1.39281 6.24586 1.30356 6.09114 1.25822 5.92146L1.25819 5.92136C1.16528 5.57444 1.11646 5.02468 1.09179 4.54832C1.0796 4.31292 1.0735 4.1001 1.07045 3.94612C1.06892 3.86917 1.06816 3.80702 1.06778 3.76421L1.06745 3.7151L1.06741 3.70251L1.0674 3.6994L1.0674 3.69866L1.0674 3.69849V3.69848V3.69846V3.69845L1.0674 3.69828L1.0674 3.69754L1.06741 3.69442L1.06745 3.68181L1.06778 3.63264C1.06816 3.58978 1.06892 3.52755 1.07045 3.45052C1.0735 3.29637 1.0796 3.08336 1.09179 2.84783C1.11647 2.37116 1.16529 1.82149 1.25816 1.4757L1.25829 1.4752C1.30336 1.30549 1.39249 1.1507 1.51665 1.02654C1.64081 0.90238 1.7956 0.813247 1.96531 0.768181L1.96569 0.76808C2.13041 0.723965 2.43614 0.687776 2.81766 0.659954C3.19396 0.632512 3.62877 0.61413 4.04233 0.601848C4.45559 0.589574 4.84614 0.583432 5.13346 0.58036C5.27709 0.578825 5.39484 0.578057 5.47662 0.577674L5.57106 0.577339L5.59567 0.577297L5.60192 0.577292L5.60347 0.577291L5.60385 0.577291L5.60394 0.577291L5.60396 0.391724L5.60398 0.577291L5.60407 0.577291L5.60445 0.577291L5.60601 0.577292L5.61226 0.577297L5.6369 0.577338L5.73144 0.57767C5.81331 0.578049 5.93118 0.578809 6.07494 0.580328C6.36254 0.583367 6.75343 0.589443 7.16696 0.601587C7.5808 0.613739 8.01583 0.631926 8.39217 0.659079C8.77372 0.686607 9.07934 0.72242 9.24363 0.766076L9.24366 0.766083C9.41337 0.81115 9.56815 0.900282 9.69231 1.02445C9.81639 1.14852 9.90549 1.30318 9.95058 1.47275C10.0411 1.81992 10.0899 2.36906 10.1152 2.8443C10.1277 3.07934 10.1343 3.29181 10.1378 3.44553C10.1395 3.52235 10.1405 3.5844 10.141 3.62715L10.1415 3.67618L10.1415 3.68876L10.1416 3.69188L10.1416 3.69217V3.6922V3.69237L10.1416 3.69262L10.1416 3.69311L10.1416 3.69623L10.1415 3.70884L10.1412 3.75801C10.1408 3.80087 10.14 3.8631 10.1385 3.94013C10.1355 4.09427 10.1294 4.30729 10.1172 4.54282C10.0925 5.01949 10.0437 5.56916 9.95081 5.91494L9.95075 5.91517C9.90541 6.08485 9.81616 6.23957 9.69197 6.36376C9.56778 6.48794 9.41305 6.57721 9.24338 6.62254L9.29128 6.80182ZM9.29128 6.80182C9.49247 6.74806 9.67593 6.64222 9.82318 6.49497C9.97044 6.34772 10.0763 6.16426 10.13 5.96308L1.07894 5.96937C1.1327 6.17055 1.23853 6.35401 1.38578 6.50126C1.53304 6.64851 1.7165 6.75435 1.91768 6.80811C2.65158 7.00521 5.60396 7.00521 5.60396 7.00521C5.60396 7.00521 8.55738 6.99683 9.29128 6.80182ZM4.4748 5.10965V5.43108L4.75316 5.27036L7.20439 3.85498L7.48271 3.69427L7.20439 3.53357L4.75316 2.11819L4.4748 1.95747V2.2789V5.10965Z" stroke="white" stroke-width="0.371135"/>
</svg>
